<?xml version="1.0" ?><!DOCTYPE svg  PUBLIC '-//W3C//DTD SVG 1.1//EN'  'http://www.w3.org/Graphics/SVG/1.1/DTD/svg11.dtd'><svg xmlns="http://www.w3.org/2000/svg" xmlns:xlink="http://www.w3.org/1999/xlink" xmlns:serif="http://www.serif.com/" width="100%" height="100%" viewBox="0 0 64 64" version="1.1" xml:space="preserve" style="fill-rule:evenodd;clip-rule:evenodd;stroke-linejoin:round;stroke-miterlimit:2;"><g><g transform="matrix(1,0,0,0.983051,-1,1.0339)"><path d="M57,2C57,0.876 56.105,-0.034 55,-0.034L11,-0.034C9.895,-0.034 9,0.876 9,2L9,61C9,62.124 9.895,63.034 11,63.034L55,63.034C56.105,63.034 57,62.124 57,61L57,2ZM53,4.034L53,58.966L13,58.966L13,4.034L53,4.034Z"/></g><g transform="matrix(0.969697,0,0,1.09091,0.484848,-0.227273)"><path d="M51.063,8C51.063,6.987 50.139,6.167 49,6.167L16,6.167C14.861,6.167 13.937,6.987 13.938,8L13.938,19C13.938,20.013 14.861,20.833 16,20.833L49,20.833C50.139,20.833 51.062,20.013 51.063,19L51.063,8Z"/></g><g transform="matrix(0.181818,0,0,0.545455,13.0909,21.6364)"><path d="M60,8C60,5.975 55.075,4.333 49,4.333L16,4.333C9.925,4.333 5,5.975 5,8L5,19C5,21.025 9.925,22.667 16,22.667L49,22.667C55.075,22.667 60,21.025 60,19L60,8Z"/></g><g transform="matrix(0.181818,0,0,0.545455,13.0909,33.6364)"><path d="M60,8C60,5.975 55.075,4.333 49,4.333L16,4.333C9.925,4.333 5,5.975 5,8L5,19C5,21.025 9.925,22.667 16,22.667L49,22.667C55.075,22.667 60,21.025 60,19L60,8Z"/></g><g transform="matrix(0.181818,0,0,0.545455,13.0909,45.6364)"><path d="M60,8C60,5.975 55.075,4.333 49,4.333L16,4.333C9.925,4.333 5,5.975 5,8L5,19C5,21.025 9.925,22.667 16,22.667L49,22.667C55.075,22.667 60,21.025 60,19L60,8Z"/></g><g transform="matrix(0.181818,0,0,0.545455,26.0909,21.6364)"><path d="M60,8C60,5.975 55.075,4.333 49,4.333L16,4.333C9.925,4.333 5,5.975 5,8L5,19C5,21.025 9.925,22.667 16,22.667L49,22.667C55.075,22.667 60,21.025 60,19L60,8Z"/></g><g transform="matrix(0.181818,0,0,0.545455,26.0909,33.6364)"><path d="M60,8C60,5.975 55.075,4.333 49,4.333L16,4.333C9.925,4.333 5,5.975 5,8L5,19C5,21.025 9.925,22.667 16,22.667L49,22.667C55.075,22.667 60,21.025 60,19L60,8Z"/></g><g transform="matrix(0.181818,0,0,0.545455,26.0909,45.6364)"><path d="M60,8C60,5.975 55.075,4.333 49,4.333L16,4.333C9.925,4.333 5,5.975 5,8L5,19C5,21.025 9.925,22.667 16,22.667L49,22.667C55.075,22.667 60,21.025 60,19L60,8Z"/></g><g transform="matrix(0.181818,0,0,0.545455,39.0909,21.6364)"><path d="M60,8C60,5.975 55.075,4.333 49,4.333L16,4.333C9.925,4.333 5,5.975 5,8L5,19C5,21.025 9.925,22.667 16,22.667L49,22.667C55.075,22.667 60,21.025 60,19L60,8Z"/></g><g transform="matrix(0.181818,0,0,0.545455,39.0909,45.6364)"><path d="M60,-14C60,-16.025 55.075,-17.667 49,-17.667L16,-17.667C9.925,-17.667 5,-16.025 5,-14L5,19C5,21.025 9.925,22.667 16,22.667L49,22.667C55.075,22.667 60,21.025 60,19L60,-14Z"/></g></g></svg>